<svg xmlns="http://www.w3.org/2000/svg" viewBox="-222 302 34 38"><path d="M-217.3 309.9c-.7 3.4-.7 6.8-.1 10 .8 4.2 3.3 6.7 7.5 7.4 3.1.5 6.2.5 9.3 0 4.1-.7 6.7-3.2 7.5-7.2.7-3.3.7-6.6 0-9.9-.8-4.1-3.3-6.5-7.5-7.3-3.1-.5-6.2-.5-9.3 0-4.1.7-6.6 3-7.4 7z" fill="none" stroke="#45cb85"/><path d="M-211.47 322.851c.221.026.443.051.631-.017.282-.103.59-.428.675-.778l1.033-3.888c.726-.051 1.512-.23 2.298-.41.034.094-.06.128-.026.222-.11.572-.734.906-1.307.795-.35-.086-.692.145-.777.496-.085.35.145.692.496.777.478.145.982.068 1.358-.069.658-.24 1.273-.889 1.444-1.59.085-.35.076-.666.068-.982 2.75-1.214 4.595-3.162 4.484-4.93l.563-.206.582 1.597c.102.282.487.462.769.359.282-.103.461-.487.358-.77l-.615-1.69.845-.308.343.94c.102.281.487.46.769.358.281-.103.46-.487.358-.77l-.342-.939.846-.308c.29.214.64.3 1.017.162a1.11 1.11 0 0 0 .657-1.41 1.11 1.11 0 0 0-1.41-.657 1.1 1.1 0 0 0-.734.906l-.752.274-.308-.846c-.103-.282-.487-.461-.769-.359-.282.103-.461.487-.359.77l.308.845-.845.308-.582-1.598c-.103-.282-.487-.46-.769-.358-.282.102-.461.487-.359.769l.582 1.597-.47.171c-1.085-1.52-4.101-1.912-7.296-.75l-.564.206-3.05-.486c-.35-.086-.692.145-.684.461-.085.35.146.692.462.684l1.495.307c-.342.23-.683.461-.897.752l-1.367-.248c-.35-.085-.692.146-.683.462-.086.35.145.692.461.683l.573.111c-.581.744-.811 1.573-.76 2.299l4.323-1.574c.085-.35.299-.64.768-.811.564-.206 1.205.093 1.41.657s-.093 1.205-.657 1.41c-.376.137-.726.051-.983-.068l-4.416 1.607c.427.59 1.196.948 2.153 1.239l-.947 3.537c-.274.419.026.948.598 1.06zM-221.6 334.7c-.3-.6-.4-1.2-.4-1.9s.1-1.4.4-1.9c.3-.6.6-1 1.1-1.4.5-.4 1.1-.7 1.7-.9.7-.2 1.4-.3 2.2-.3h2.7c.1 0 .1 0 .1-.1h.1s.1.1.1.2.1.2.1.3c0 .2-.1.4-.2.6-.1.2-.2.2-.4.2H-216v8.6c0 1.2-.3 1.9-.8 1.9-.2 0-.4-.1-.6-.3-.2-.2-.4-.4-.4-.6v-.1h.2c.3 0 .4-.4.4-1.1v-8.4c-.4 0-.8.1-1.1.2-.3.1-.7.2-1 .4-.3.2-.6.4-.8.6-.2.2-.4.5-.5.9s-.2.8-.2 1.2c0 .8.3 1.5.9 2.1.2 0 .2 0 .2.2s-.1.4-.2.6-.3.3-.5.3c-.1 0-.2 0-.2-.1-.4-.2-.7-.6-1-1.2zm28.9 2v-6.2c0-.6.1-1 .4-1.4.3-.4.6-.5 1-.5.2 0 .3 0 .5.1.1.1.3.1.4.2s.2.2.2.4c.1.2.1.3.1.4 0 .1.1.3.1.5v.8c0 .5-.1 1.1-.2 1.8s-.3 1.2-.5 1.8c-.2.5-.4 1-.5 1.3l-.3.6v.9c0 .3.1.6.2.8.1.2.3.3.6.3.2 0 .4-.1.6-.3.2-.2.4-.4.5-.6.1-.2.2-.5.3-.7.1-.3.2-.4.4-.4s.3.1.4.3c.1.1.1.2.1.3v.1c-.1.2-.1.4-.2.6l-.3.6c-.1.2-.3.4-.5.6-.2.2-.4.3-.6.4-.2.1-.5.2-.7.2-.6 0-1-.2-1.3-.5-.1-.1-.2-.3-.3-.5-.1.2-.2.3-.4.4-.2.2-.4.3-.6.4-.2.1-.5.2-.7.2-.6 0-1-.2-1.3-.5-.1-.1-.2-.3-.3-.4l-.1.1c-.2.3-.4.5-.6.6-.3.1-.5.2-.8.2-.4 0-.7-.1-.9-.4-.1-.1-.2-.3-.3-.5l-.3.3c-.2.2-.4.3-.6.4-.2.1-.5.2-.7.2-.3 0-.6-.1-.8-.2-.3-.2-.5-.3-.6-.6s-.3-.5-.4-.8c-.1-.3-.1-.5-.1-.8 0-.1 0-.2.1-.3.1-.1.2-.2.4-.3l.4-.4c.1-.2.3-.3.3-.6.1-.2.1-.5.1-.7 0-.2 0-.3-.1-.5-.1-.1-.2-.2-.3-.2-.2 0-.5.2-.8.5-.3.3-.5.9-.7 1.6v3c0 .1 0 .1-.1.2l-.1.1h-.2c-.5 0-.7-.2-.7-.7v-.5c-.5.4-1.1.6-1.9.6-.4.4-.9.5-1.5.5-.3 0-.6-.1-.9-.2l-.6-.3c-.1.2-.3.3-.5.4-.2.1-.4.2-.7.2-.5 0-.9-.2-1.2-.6-.4.4-.8.6-1.3.6-.6 0-1-.2-1.3-.6-.3-.4-.5-1-.5-1.7 0-.6.1-1.2.3-1.7.2-.5.5-1 .8-1.3.3-.3.7-.6 1.1-.8.4-.2.9-.3 1.3-.3.2 0 .4.1.5.2.1.1.2.3.2.5v.3c0 .1-.1.1-.2.1h-.4c-.3 0-.6.1-.9.2-.3.1-.5.3-.8.6-.2.3-.4.6-.6 1-.1.4-.2.9-.2 1.4 0 .4.1.7.2.9s.4.3.6.3c.4 0 .6-.3.8-.8v-2.3-.3-.2c0-.1 0-.1.1-.2.1 0 .2-.1.3-.1.2 0 .4.1.6.2.1.1.2.3.2.5v2.5c0 .2 0 .4.1.5.1.1.2.2.4.2s.3-.1.5-.2v-.2c0-.1 0-.2.1-.4 0-.1.1-.2.2-.2.1-.1.1-.1.2-.1h.1c0-.2.1-.3.1-.5v-.1c0-.2.1-.3.1-.6s.1-.4.2-.5c0-.1.1-.4.2-.7s.2-.5.2-.6c-.2-.3-.2-.5-.2-.7 0-.2.2-.5.5-.8.3-.3.6-.4.8-.4.2 0 .3.1.4.2s.1.3.1.5c0 .1 0 .3-.1.4-.1.2-.1.3-.2.4s-.1.2-.1.2c.1.2.3.5.5.8s.4.6.5.7c.1.2.3.4.4.7s.2.6.2 1c0 .2 0 .4-.1.5.6-.1 1-.5 1.2-1.1 0-.1 0-.1.1-.2v-7c0-.2 0-.3-.1-.4-.1-.1-.1-.2-.1-.2s.1-.1.2-.1h.3c.2 0 .4.1.6.2.1.1.2.3.2.5v4.7c.6-.8 1.2-1.3 1.8-1.3.4 0 .8.2 1 .5s.3.7.3 1.2-.1 1-.4 1.4-.6.8-1 1.1c.1.4.2.7.4.9s.4.4.7.4c.2 0 .4-.1.6-.3.2-.2.4-.4.5-.6.1-.2.2-.5.3-.7 0-.1 0-.1.1-.2v-2.7-.3-.2c0-.1 0-.1.1-.2.1 0 .2-.1.3-.1.2 0 .4.1.6.2.1.1.2.3.2.5v3.9c0 .5.1.7.4.7.5 0 .8-.5 1-1.6 0-.1 0-.1.1-.2v-6.1c0-.6.1-1 .4-1.4s.6-.5 1-.5c.2 0 .3 0 .5.1.1.1.3.1.4.2.1.1.2.2.2.4.1.2.1.3.1.4 0 .1.1.3.1.5v.8c0 .5-.1 1.1-.2 1.8s-.3 1.2-.5 1.8c-.2.5-.4 1-.5 1.3l-.3.6v.9c0 .3.1.6.2.8s.3.3.6.3c.2 0 .4-.1.6-.3.2-.2.4-.4.5-.6.1-.2.2-.5.3-.7l-.6-.5zm-15.2.3c-.1.3-.1.5-.2.7.2.1.5.2.7.3.4.1.6.2.9.2.2-.3.3-.6.3-.9 0-.2 0-.4-.1-.7-.1-.2-.1-.4-.3-.6-.1-.2-.2-.3-.3-.5-.1-.1-.2-.3-.4-.4-.1.4-.3 1-.6 1.9.1-.1.1-.1 0 0zm13-2.5c.2-.3.3-.8.4-1.6.1-.8.2-1.4.2-1.9 0-1-.1-1.5-.4-1.5-.1 0-.1.1-.2.2 0 .1-.1.3-.1.4v4.4zm-3.8-3.8c0-.3.1-.5.3-.7.2-.2.4-.3.6-.3.3 0 .5.1.7.3.2.2.3.4.3.7 0 .3-.1.5-.3.7-.2.2-.4.3-.7.3-.3 0-.5-.1-.6-.3-.2-.2-.3-.4-.3-.7zm7.1 3.8c.2-.3.3-.8.4-1.6.1-.8.2-1.4.2-1.9 0-1-.1-1.5-.4-1.5-.1 0-.1.1-.2.2s-.1.3-.1.4v4.4z" fill="#45cb85"/></svg>