<svg xmlns="http://www.w3.org/2000/svg" viewBox="-222 315 34 12"><path d="M-221.6 321.7c-.3-.6-.4-1.2-.4-1.9s.1-1.4.4-1.9c.3-.6.6-1 1.1-1.4.5-.4 1.1-.7 1.7-.9.7-.2 1.4-.3 2.2-.3h2.7s.1 0 .1-.1h.1s.1.1.1.2.1.2.1.3c0 .2-.1.4-.2.6-.1.2-.3.3-.4.2h-2v8.6c0 1.2-.3 1.9-.8 1.9-.2 0-.4-.1-.6-.3-.2-.2-.4-.4-.4-.6v-.1h.2c.3 0 .4-.4.4-1.1v-8.4c-.4 0-.7.1-1.1.2-.3.1-.7.2-1 .4-.3.2-.6.4-.8.6-.2.2-.4.5-.5.9-.1.4-.2.8-.2 1.2 0 .8.3 1.5.9 2.1.2 0 .2 0 .2.2s-.1.4-.2.6c-.2.2-.3.3-.5.3-.1 0-.2 0-.2-.1-.3-.2-.6-.6-.9-1.2zm28.9 2v-6.2c0-.6.1-1 .4-1.4s.6-.6 1-.6c.3 0 .6.1.8.3.1.1.2.2.2.4.1.2.1.3.1.4s.1.3.1.5v.9c0 .5-.1 1.1-.2 1.8-.1.6-.3 1.2-.5 1.8-.2.5-.4 1-.5 1.3l-.3.6v.9c0 .3.1.6.2.8.1.2.3.3.6.3.2 0 .4-.1.6-.3.2-.2.4-.4.5-.6.1-.2.2-.5.2-.7.1-.3.2-.4.4-.4s.3.1.4.3c.1.1.1.2.1.3v.1c-.1.2-.1.4-.2.6l-.3.6c-.1.2-.3.4-.5.6-.2.2-.4.3-.6.4-.2.1-.5.2-.7.2-.6 0-1-.2-1.3-.5-.1-.1-.2-.3-.3-.5-.1.2-.2.3-.4.4-.2.2-.4.3-.6.4-.2.1-.5.2-.7.2-.6 0-1-.2-1.3-.5-.1-.1-.2-.2-.3-.4l-.1.1c-.2.3-.4.5-.6.6-.3.1-.5.2-.8.2-.4 0-.7-.1-.9-.4-.1-.1-.2-.3-.3-.5l-.3.3c-.2.2-.4.3-.6.4-.2.1-.5.2-.7.2-.3 0-.6-.1-.8-.2-.2-.1-.5-.3-.6-.6-.2-.2-.3-.5-.4-.8-.1-.3-.1-.5-.1-.8 0-.1 0-.2.1-.3.1-.1.2-.2.4-.3s.3-.3.4-.4c.1-.2.3-.3.4-.6.1-.2.1-.5.1-.7 0-.2 0-.3-.1-.5-.1-.1-.2-.2-.4-.2s-.5.2-.8.5c-.3.3-.5.9-.7 1.6v3c0 .1 0 .1-.1.2l-.1.1h-.2c-.5 0-.7-.2-.7-.7v-.5c-.5.4-1.1.6-1.9.6-.4.4-.9.5-1.5.5-.3 0-.6-.1-.9-.2l-.6-.3c-.1.2-.3.3-.5.4-.2.1-.5.2-.7.2-.5 0-.9-.2-1.2-.6-.4.4-.8.6-1.3.6-.6 0-1-.2-1.3-.6-.3-.4-.5-1-.5-1.7 0-.6.1-1.2.3-1.7.2-.5.5-1 .8-1.3.3-.3.7-.6 1.1-.8.4-.2.9-.3 1.3-.3.2 0 .4.1.5.2.1.1.2.3.2.5v.3c0 .1-.1.1-.2.1h-.4c-.3 0-.6.1-.9.2-.3.1-.6.3-.8.6-.2.2-.4.6-.6 1-.1.4-.2.9-.2 1.4 0 .4.1.7.2.9.2.2.4.3.6.3.4 0 .6-.3.8-.8v-2.3-.3-.2c0-.1 0-.1.1-.2s.2-.1.3-.1c.2 0 .4.1.6.2.1.1.2.3.2.5v2.5c0 .2 0 .4.1.5.1.1.2.2.4.2s.3-.1.5-.2v-.2c0-.1 0-.2.1-.4 0-.1.1-.2.2-.2.1-.1.1-.1.2-.1h.1c0-.1.1-.3.1-.5v-.1c.1-.4.2-.8.3-1.1.1-.4.3-.8.4-1.2-.2-.3-.2-.5-.2-.7 0-.2.2-.5.5-.8.3-.3.6-.4.8-.4.2 0 .3.1.4.2s.1.3.1.5c0 .1 0 .3-.1.4 0 .1-.1.3-.2.4 0 .1-.1.1-.1.2.1.2.3.5.5.8l.5.7c.1.2.3.4.4.7.1.3.2.6.2 1 0 .2 0 .4-.1.5.6-.1 1-.5 1.2-1.1 0-.1 0-.1.1-.2v-7c0-.1 0-.3-.1-.4 0-.1-.1-.1-.1-.2 0 0 .1-.1.2-.1h.3c.2 0 .4.1.6.2.1.1.2.3.2.5v4.7c.6-.8 1.2-1.3 1.8-1.3.4 0 .8.2 1 .5.2.3.3.7.3 1.2s-.1 1-.4 1.4c-.3.4-.6.8-1 1.1.1.4.2.7.4.9.2.2.4.4.7.4.2 0 .4-.1.6-.3.2-.2.4-.4.5-.6.1-.2.2-.5.3-.7 0-.1 0-.1.1-.2v-2.7-.3-.2c0-.1 0-.1.1-.2.1 0 .2-.1.3-.1.2 0 .4.1.6.2.1.1.2.3.2.5v3.9c0 .5.1.7.4.7.5 0 .8-.5 1-1.6 0-.1 0-.1.1-.2v-6.1c0-.6.1-1 .4-1.4.3-.4.6-.5 1-.5.3 0 .6.1.8.3.1.1.2.2.2.4.1.2.1.3.1.4 0 .1.1.3.1.5v.9c0 .5-.1 1.1-.2 1.8-.1.6-.3 1.2-.5 1.8-.2.5-.4 1-.5 1.3l-.3.6v.9c0 .3.1.6.2.8.1.2.3.3.6.3.2 0 .4-.1.6-.3.2-.2.4-.4.5-.6.1-.2.2-.5.2-.7l-.2-.7zm-15.2.3c-.1.3-.1.5-.2.7.2.1.5.2.7.3.4.1.6.2.9.2.2-.3.3-.6.3-.9 0-.2 0-.4-.1-.6-.1-.2-.1-.4-.3-.6-.1-.2-.2-.3-.3-.5-.1-.2-.3-.3-.4-.4l-.6 1.8c.1-.1.1-.1 0 0zm13-2.5c.2-.3.3-.8.4-1.6.1-.8.2-1.4.2-1.9 0-1-.1-1.5-.4-1.5-.1 0-.1.1-.2.2 0 .1-.1.3-.1.4.1 0 .1 4.4.1 4.4zm-3.8-3.8c0-.3.1-.5.3-.7.2-.2.4-.3.6-.3.3 0 .5.1.7.3.2.2.3.4.3.7 0 .2-.1.5-.3.7-.2.2-.4.3-.7.3-.2 0-.5-.1-.6-.3-.2-.2-.3-.4-.3-.7zm7.1 3.8c.2-.3.3-.8.4-1.6.1-.8.2-1.4.2-1.9 0-1-.1-1.5-.4-1.5-.1 0-.1.1-.2.2 0 .1-.1.3-.1.4v4.4h.1z" fill="#ccc"/></svg>