<svg id="Layer_1" xmlns="http://www.w3.org/2000/svg" viewBox="-222 302 34 38"><style>.st0{fill:#45cb85}</style><g id="Page-1"><g id="Group-10-Copy-2"><g id="Group" transform="translate(3)"><path id="Foreground---Galaxy-S8-Copy" class="st0" d="M-220.8 309.8c.9-4.3 3.6-6.7 7.9-7.4 3.1-.5 6.3-.5 9.4 0 4.4.8 7 3.3 7.9 7.7.6 3.4.7 6.8 0 10.1-.9 4.3-3.7 6.9-7.9 7.6-3.1.5-6.3.5-9.4 0-4.4-.8-7-3.4-7.9-7.8-.8-3.4-.7-6.8 0-10.2z"/><g id="ray-gun-copy-4" transform="scale(-1 1) rotate(20 -17.513 -61.978)"><path id="Shape" d="M332.1 220.3c-.2.1-.4.2-.6.2-.3 0-.7-.2-.9-.5l-2.3-3.3c-.7.2-1.5.3-2.3.4 0 .1.1.1.1.2.3.5 1 .6 1.5.3.3-.2.7-.1.9.2.2.3.1.7-.2.9-.4.3-.9.4-1.3.4-.7 0-1.5-.4-1.9-1-.2-.3-.3-.6-.4-.9-3-.2-5.4-1.4-5.9-3.1h-.6v1.7c0 .3-.3.6-.6.6s-.6-.3-.6-.6V214h-.9v1c0 .3-.3.6-.6.6s-.6-.3-.6-.6v-1h-.9c-.2.3-.5.5-.9.5-.6 0-1.1-.5-1.1-1.1 0-.6.5-1.1 1.1-1.1.4 0 .8.2 1 .6h.8v-.9c0-.3.3-.6.6-.6s.6.3.6.6v.9h.9v-1.7c0-.3.3-.6.6-.6s.6.3.6.6v1.7h.5c.5-1.8 3.2-3.2 6.6-3.2h.6l2.7-1.5c.3-.2.7-.1.8.2.2.3.1.7-.2.8l-1.3.8c.4.1.8.2 1.1.4l1.2-.7c.3-.2.7-.1.8.2.2.3.1.7-.2.8l-.5.3c.8.5 1.3 1.2 1.5 1.9h-4.6c-.2-.3-.5-.5-1-.5-.6 0-1.1.5-1.1 1.1s.5 1.1 1.1 1.1c.4 0 .7-.2.9-.4h4.7c-.2.7-.8 1.3-1.6 1.9l2.1 3c.4.3.3.9-.2 1.2z" fill="#fff"/></g></g><path id="Taskill-Copy-4" class="st0" d="M-221.6 334.7c-.3-.6-.4-1.2-.4-1.9s.1-1.4.4-1.9c.3-.6.6-1 1.1-1.4.5-.4 1.1-.7 1.7-.9.7-.2 1.4-.3 2.2-.3h2.7c.1 0 .1 0 .1-.1h.1s.1.1.1.2.1.2.1.3c0 .2-.1.4-.2.6-.1.2-.2.2-.4.2H-216v8.6c0 1.2-.3 1.9-.8 1.9-.2 0-.4-.1-.6-.3-.2-.2-.4-.4-.4-.6v-.1h.2c.3 0 .4-.4.4-1.1v-8.4c-.4 0-.8.1-1.1.2-.3.1-.7.2-1 .4-.3.2-.6.4-.8.6-.2.2-.4.5-.5.9s-.2.8-.2 1.2c0 .8.3 1.5.9 2.1.2 0 .2 0 .2.2s-.1.4-.2.6-.3.3-.5.3c-.1 0-.2 0-.2-.1-.4-.2-.7-.6-1-1.2zm28.9 2v-6.2c0-.6.1-1 .4-1.4.3-.4.6-.5 1-.5.2 0 .3 0 .5.1.1.1.3.1.4.2s.2.2.2.4c.1.2.1.3.1.4 0 .1.1.3.1.5v.8c0 .5-.1 1.1-.2 1.8s-.3 1.2-.5 1.8c-.2.5-.4 1-.5 1.3l-.3.6v.9c0 .3.1.6.2.8.1.2.3.3.6.3.2 0 .4-.1.6-.3.2-.2.4-.4.5-.6.1-.2.2-.5.3-.7.1-.3.2-.4.4-.4s.3.1.4.3c.1.1.1.2.1.3v.1c-.1.2-.1.4-.2.6l-.3.6c-.1.2-.3.4-.5.6-.2.2-.4.3-.6.4-.2.1-.5.2-.7.2-.6 0-1-.2-1.3-.5-.1-.1-.2-.3-.3-.5-.1.2-.2.3-.4.4-.2.2-.4.3-.6.4-.2.1-.5.2-.7.2-.6 0-1-.2-1.3-.5-.1-.1-.2-.3-.3-.4l-.1.1c-.2.3-.4.5-.6.6-.3.1-.5.2-.8.2-.4 0-.7-.1-.9-.4-.1-.1-.2-.3-.3-.5l-.3.3c-.2.2-.4.3-.6.4-.2.1-.5.2-.7.2-.3 0-.6-.1-.8-.2-.3-.2-.5-.3-.6-.6s-.3-.5-.4-.8c-.1-.3-.1-.5-.1-.8 0-.1 0-.2.1-.3.1-.1.2-.2.4-.3l.4-.4c.1-.2.3-.3.3-.6.1-.2.1-.5.1-.7 0-.2 0-.3-.1-.5-.1-.1-.2-.2-.3-.2-.2 0-.5.2-.8.5-.3.3-.5.9-.7 1.6v3c0 .1 0 .1-.1.2l-.1.1h-.2c-.5 0-.7-.2-.7-.7v-.5c-.5.4-1.1.6-1.9.6-.4.4-.9.5-1.5.5-.3 0-.6-.1-.9-.2l-.6-.3c-.1.2-.3.3-.5.4-.2.1-.4.2-.7.2-.5 0-.9-.2-1.2-.6-.4.4-.8.6-1.3.6-.6 0-1-.2-1.3-.6-.3-.4-.5-1-.5-1.7 0-.6.1-1.2.3-1.7.2-.5.5-1 .8-1.3.3-.3.7-.6 1.1-.8.4-.2.9-.3 1.3-.3.2 0 .4.1.5.2.1.1.2.3.2.5v.3c0 .1-.1.1-.2.1h-.4c-.3 0-.6.1-.9.2-.3.1-.5.3-.8.6-.2.3-.4.6-.6 1-.1.4-.2.9-.2 1.4 0 .4.1.7.2.9s.4.3.6.3c.4 0 .6-.3.8-.8v-2.3-.3-.2c0-.1 0-.1.1-.2.1 0 .2-.1.3-.1.2 0 .4.1.6.2.1.1.2.3.2.5v2.5c0 .2 0 .4.1.5.1.1.2.2.4.2s.3-.1.5-.2v-.2c0-.1 0-.2.1-.4 0-.1.1-.2.2-.2.1-.1.1-.1.2-.1h.1c0-.2.1-.3.1-.5v-.1c0-.2.1-.3.1-.6s.1-.4.2-.5c0-.1.1-.4.2-.7s.2-.5.2-.6c-.2-.3-.2-.5-.2-.7 0-.2.2-.5.5-.8.3-.3.6-.4.8-.4.2 0 .3.1.4.2s.1.3.1.5c0 .1 0 .3-.1.4-.1.2-.1.3-.2.4s-.1.2-.1.2c.1.2.3.5.5.8s.4.6.5.7c.1.2.3.4.4.7s.2.6.2 1c0 .2 0 .4-.1.5.6-.1 1-.5 1.2-1.1 0-.1 0-.1.1-.2v-7c0-.2 0-.3-.1-.4-.1-.1-.1-.2-.1-.2s.1-.1.2-.1h.3c.2 0 .4.1.6.2.1.1.2.3.2.5v4.7c.6-.8 1.2-1.3 1.8-1.3.4 0 .8.2 1 .5s.3.7.3 1.2-.1 1-.4 1.4-.6.8-1 1.1c.1.4.2.7.4.9s.4.4.7.4c.2 0 .4-.1.6-.3.2-.2.4-.4.5-.6.1-.2.2-.5.3-.7 0-.1 0-.1.1-.2v-2.7-.3-.2c0-.1 0-.1.1-.2.1 0 .2-.1.3-.1.2 0 .4.1.6.2.1.1.2.3.2.5v3.9c0 .5.1.7.4.7.5 0 .8-.5 1-1.6 0-.1 0-.1.1-.2v-6.1c0-.6.1-1 .4-1.4s.6-.5 1-.5c.2 0 .3 0 .5.1.1.1.3.1.4.2.1.1.2.2.2.4.1.2.1.3.1.4 0 .1.1.3.1.5v.8c0 .5-.1 1.1-.2 1.8s-.3 1.2-.5 1.8c-.2.5-.4 1-.5 1.3l-.3.6v.9c0 .3.1.6.2.8s.3.3.6.3c.2 0 .4-.1.6-.3.2-.2.4-.4.5-.6.1-.2.2-.5.3-.7l-.6-.5zm-15.2.3c-.1.3-.1.5-.2.7.2.1.5.2.7.3.4.1.6.2.9.2.2-.3.3-.6.3-.9 0-.2 0-.4-.1-.7-.1-.2-.1-.4-.3-.6-.1-.2-.2-.3-.3-.5-.1-.1-.2-.3-.4-.4-.1.4-.3 1-.6 1.9.1-.1.1-.1 0 0zm13-2.5c.2-.3.3-.8.4-1.6.1-.8.2-1.4.2-1.9 0-1-.1-1.5-.4-1.5-.1 0-.1.1-.2.2 0 .1-.1.3-.1.4v4.4zm-3.8-3.8c0-.3.1-.5.3-.7.2-.2.4-.3.6-.3.3 0 .5.1.7.3.2.2.3.4.3.7 0 .3-.1.5-.3.7-.2.2-.4.3-.7.3-.3 0-.5-.1-.6-.3-.2-.2-.3-.4-.3-.7zm7.1 3.8c.2-.3.3-.8.4-1.6.1-.8.2-1.4.2-1.9 0-1-.1-1.5-.4-1.5-.1 0-.1.1-.2.2s-.1.3-.1.4v4.4z"/></g></g></svg>