<svg xmlns="http://www.w3.org/2000/svg" viewBox="-226 307 27 27"><path d="M-224.8 314.8c.9-4.3 3.6-6.7 7.9-7.4 3.1-.5 6.3-.5 9.4 0 4.4.8 7 3.3 7.9 7.7.6 3.4.7 6.8 0 10.1-.9 4.3-3.7 6.9-7.9 7.6-3.1.5-6.3.5-9.4 0-4.4-.8-7-3.4-7.9-7.8-.8-3.4-.7-6.8 0-10.2z" fill="#45cb85"/><path d="M-218.476 327.927c.222.026.444.051.632-.017.282-.103.59-.428.675-.778l1.032-3.887c.726-.052 1.512-.232 2.298-.411.035.094-.06.128-.025.222-.111.572-.735.906-1.307.795-.35-.085-.692.145-.777.496-.086.35.145.692.495.777.479.145.983.068 1.359-.069.657-.24 1.272-.889 1.443-1.59.085-.35.077-.666.068-.982 2.75-1.214 4.596-3.162 4.484-4.93l.564-.206.581 1.597c.103.282.487.462.77.359.281-.103.46-.487.358-.769l-.581-1.597.845-.308.342.94c.103.281.487.46.77.358.281-.103.46-.487.358-.769l-.342-.94.846-.308c.29.214.64.3 1.016.162a1.11 1.11 0 0 0 .658-1.41 1.11 1.11 0 0 0-1.41-.657 1.1 1.1 0 0 0-.735.906l-.751.274-.308-.846c-.103-.282-.487-.461-.77-.359-.281.103-.46.487-.358.77l.308.845-.846.308-.581-1.598c-.103-.282-.487-.46-.77-.358-.281.102-.46.487-.358.769l.582 1.597-.47.171c-1.086-1.52-4.102-1.912-7.297-.75l-.563.206-3.05-.486c-.35-.086-.693.145-.684.461-.085.35.145.692.462.684l1.495.307c-.342.23-.684.461-.897.752l-1.367-.247c-.35-.086-.692.145-.683.461-.086.35.145.692.461.683l.573.111c-.581.744-.812 1.573-.76 2.299l4.322-1.574c.086-.35.3-.64.77-.811.563-.206 1.204.093 1.409.657s-.094 1.205-.657 1.41c-.376.137-.727.051-.983-.068l-4.417 1.607c.428.59 1.197.948 2.154 1.239l-.947 3.537c-.342.23-.043.76.564.965z" fill="#fff"/></svg>